<svg xmlns="http://www.w3.org/2000/svg" viewBox="0 0 516.97 516.97"><g id="Layer_2" data-name="Layer 2"><g id="Layer_1-2" data-name="Layer 1"><path d="M226.07,191.92a11,11,0,0,1-15.6,0L105.62,87.07a11.08,11.08,0,0,1-2.91-5.13L95.3,52.39,47,24.79,24.79,47,52.36,95.27l29.56,7.42a11.07,11.07,0,0,1,5.12,2.9L191.89,210.45A11,11,0,0,1,176.29,226L73.63,123.38l-31.16-7.79a11.06,11.06,0,0,1-6.89-5.23L1.45,50.64A11,11,0,0,1,3.34,37.38l34.1-34.1A11.07,11.07,0,0,1,50.68,1.5l59.71,34.12a11.08,11.08,0,0,1,5.23,6.9l7.79,31.15L226.07,176.33A11,11,0,0,1,226.07,191.92Z"/><path d="M496.35,395.46l-.46-.47L394.14,293.24a11,11,0,0,0-15.6,0l-4.26,4.26a7.12,7.12,0,0,1-10,0,7,7,0,0,1-2.07-5,6.94,6.94,0,0,1,2-4.92l4.34-4.35a11,11,0,0,0,0-15.6l-17.79-17.79,42-42a103.48,103.48,0,0,0,19.15,1.86h.36A104.5,104.5,0,0,0,513.57,79.52a11,11,0,0,0-13.37-8,11.2,11.2,0,0,0-5.13,2.9l-52,52-39.48-13.16L390.43,73.73l52-52a11,11,0,0,0-5.15-18.5A104.55,104.55,0,0,0,307.07,104.87,103.23,103.23,0,0,0,308.93,124L124,308.93a103.25,103.25,0,0,0-19.16-1.86A104.86,104.86,0,1,0,209.72,411.92a102.83,102.83,0,0,0-1.87-19.16l42-42,17.79,17.79a11.05,11.05,0,0,0,15.6,0l4.26-4.26a7.07,7.07,0,0,1,10.05,9.94l-4.32,4.31a11,11,0,0,0,0,15.59L395,495.88A71.34,71.34,0,0,0,496.35,395.46Zm-3.53,36.47a49.23,49.23,0,0,1-47.31,62.8h-.06a49.28,49.28,0,0,1-13.52-1.91ZM188,381.44a11.1,11.1,0,0,0-2.91,10.49A83.36,83.36,0,0,1,61.71,484.17a83.35,83.35,0,0,1,42.57-155,83.83,83.83,0,0,1,20.6,2.57,11.19,11.19,0,0,0,10.47-2.91L328.8,135.34a11.08,11.08,0,0,0,2.9-10.49A82.39,82.39,0,0,1,410.9,22L370,62.94a11,11,0,0,0-2.67,11.29l17.06,51.18a11.1,11.1,0,0,0,7,7l51.18,17.06a11,11,0,0,0,11.28-2.66l40.88-40.88a82.47,82.47,0,0,1-81.93,81.76,84.26,84.26,0,0,1-20.87-2.58,11.06,11.06,0,0,0-10.48,2.9l-4.22,4.27Zm222.6,98.85L316.35,386a29.12,29.12,0,0,0-40.65-40.59l-10.31-10.32,69.77-69.67,10.32,10.29a29.12,29.12,0,0,0,40.65,40.59l94.16,94.25c.42.42.85.88,1.3,1.37L412,481.59C411.47,481.15,411,480.72,410.59,480.29Z"/><path d="M165.49,406.25,139.9,363.6a11.07,11.07,0,0,0-9.45-5.35H79.27a11.07,11.07,0,0,0-9.45,5.35L44.23,406.25a11,11,0,0,0,0,11.36l25.59,42.65a11.07,11.07,0,0,0,9.45,5.35h51.18a11.09,11.09,0,0,0,9.45-5.35l25.59-42.65A11,11,0,0,0,165.49,406.25Zm-80,37.3-19-31.62,19-31.62h38.7l19,31.62-19,31.62Z"/><path d="M354,178.39,178.4,354a11,11,0,0,1-15.6-15.6L338.4,162.8a11,11,0,0,1,15.59,0A11,11,0,0,1,354,178.39Z"/><path d="M439.29,439.28a11,11,0,0,1-15.6,0l-73.23-73.23a11,11,0,0,1,15.6-15.6l73.23,73.23A11,11,0,0,1,439.29,439.28Z"/></g></g></svg>