<svg xmlns="http://www.w3.org/2000/svg" viewBox="0 0 512 512"><g id="Layer_2" data-name="Layer 2"><g id="Layer_1-2" data-name="Layer 1"><g id="Layer_2-2" data-name="Layer 2"><g id="Capa_1" data-name="Capa 1"><path d="M503.21,186.83l-25-25a30,30,0,0,0-42.43,0h0L383,214.53V45A45.05,45.05,0,0,0,338,0H45A45.05,45.05,0,0,0,0,45V467a45.05,45.05,0,0,0,45,45H338a45.05,45.05,0,0,0,45-45V348L503.21,229.26a30,30,0,0,0,0-42.43ZM323.81,364.25l-45.12,21.06,21-45.08,112-112L436.46,253ZM353,467a15,15,0,0,1-15,15H45a15,15,0,0,1-15-15V45A15,15,0,0,1,45,30H338a15,15,0,0,1,15,15V244.53c-83.18,83.18-77.75,77.2-79.34,80.62L234.06,410A15,15,0,0,0,254,429.94l84.85-39.6c3.11-1.45,3.62-2.35,14.15-12.75ZM457.81,231.93,432.92,207l24-24,25,25.05Z"/><path d="M80,127H304a15,15,0,0,0,0-30H80a15,15,0,0,0,0,30Z"/><path d="M80,207H256a15,15,0,0,0,0-30H80a15,15,0,0,0,0,30Z"/><path d="M208,257H80a15,15,0,0,0,0,30H208a15,15,0,0,0,0-30Z"/></g></g></g></g></svg>