<svg xmlns="http://www.w3.org/2000/svg" viewBox="0 0 418.33 437.54"><g id="Layer_2" data-name="Layer 2"><g id="Layer_1-2" data-name="Layer 1"><g id="Layer_2-2" data-name="Layer 2"><g id="Capa_1" data-name="Capa 1"><path d="M414.47,155.2,361.6,111.08V48.49c0-6.14-5.3-11.12-11.81-11.12H272.58L241.81,11.69a51.16,51.16,0,0,0-65.24.11L145.81,37.37H67.62c-6.51,0-11.82,5-11.82,11.12V112L3.9,155.23A11.27,11.27,0,0,0,0,164l0,1.45H.2V386.31C.2,414.56,23,437.54,51,437.54H367.27c28,0,50.84-23,50.84-51.23V165.45h.1l.1-1.39A10.61,10.61,0,0,0,414.47,155.2ZM361.6,140.77,389,163.53,361.6,183.88ZM227.3,29.38l9.5,8H181.53l9.65-8.08A28.29,28.29,0,0,1,227.3,29.38ZM78.64,60.2H338.78V200.85L226.29,284.59a28.64,28.64,0,0,1-34.06,0L78.64,200.05ZM55.8,141.61V183L29.42,163.41ZM395.37,386.18a28.28,28.28,0,0,1-28,28.49H51.05a28.27,28.27,0,0,1-28-28.4V186.69L178.73,303a51,51,0,0,0,61,0L395.37,186.69Z"/><path d="M212.68,148.08a11.43,11.43,0,0,1-11.42,11.41H147.65a11.42,11.42,0,1,1,0-22.83h53.61A11.43,11.43,0,0,1,212.68,148.08Z"/><path d="M282.18,197.72a11.44,11.44,0,0,1-11.42,11.42H147.65a11.42,11.42,0,0,1,0-22.84H270.76A11.43,11.43,0,0,1,282.18,197.72Z"/></g></g></g></g></svg>