<svg xmlns="http://www.w3.org/2000/svg" viewBox="0 0 442 390"><g id="Layer_2" data-name="Layer 2"><g id="Capa_1" data-name="Capa 1"><path d="M171,310H70a10,10,0,0,0,0,20H171a10,10,0,0,0,0-20Z"/><path d="M322,310H221a10,10,0,0,0,0,20H322a10,10,0,0,0,0-20Z"/><path d="M322,60H70a10,10,0,0,0,0,20H322a10,10,0,0,0,0-20Z"/><path d="M322,110H221a10,10,0,0,0,0,20H322a10,10,0,0,0,0-20Z"/><path d="M322,160H221a10,10,0,0,0,0,20H322a10,10,0,0,0,0-20Z"/><path d="M322,210H221a10,10,0,0,0,0,20H322a10,10,0,0,0,0-20Z"/><path d="M322,260H221a10,10,0,0,0,0,20H322a10,10,0,0,0,0-20Z"/><path d="M171,260H70a10,10,0,0,0,0,20H171a10,10,0,0,0,0-20Z"/><path d="M171,110H70a10,10,0,0,0-10,10V221a10,10,0,0,0,10,10H171a10,10,0,0,0,10-10V120A10,10,0,0,0,171,110ZM161,211H80V130h81Z"/><path d="M422,50H392V20A20,20,0,0,0,372,0H20A20,20,0,0,0,0,20V340a50.06,50.06,0,0,0,50,50H392a50.06,50.06,0,0,0,50-50V70A20,20,0,0,0,422,50Zm0,290a30,30,0,0,1-30,30H50a30,30,0,0,1-30-30V20H372V325a25,25,0,0,0,25,25,10,10,0,0,0,0-20,5,5,0,0,1-5-5V70h30Z"/></g></g></svg>