<svg xmlns="http://www.w3.org/2000/svg" viewBox="0 0 511.2 403.97"><g id="Layer_2" data-name="Layer 2"><g id="Layer_1-2" data-name="Layer 1"><g id="Layer_2-2" data-name="Layer 2"><g id="Capa_1" data-name="Capa 1"><path d="M511.2,202a11.43,11.43,0,0,1-11.41,11.42H472a11.42,11.42,0,0,1,0-22.84h27.8A11.43,11.43,0,0,1,511.2,202Z"/><path d="M495.93,153.91,477.59,164.5a11.41,11.41,0,1,1-11.29-19.84l18.19-10.53a11.43,11.43,0,0,1,11.44,19.78Z"/><path d="M500.09,265.72a11.41,11.41,0,0,1-7,5.27,11.53,11.53,0,0,1-2.9.37,11.37,11.37,0,0,1-5.76-1.57L466.29,259.3a11.41,11.41,0,0,1,11.4-19.77l16,9.23v-.06l2.38,1.4a11.44,11.44,0,0,1,4.06,15.62Z"/><path d="M433.86,127.81a502.87,502.87,0,0,0-9.72-63.12C414.16,21.16,400.43,0,382.13,0h0a22.59,22.59,0,0,0-10.23,2.46L7,155.72a11.39,11.39,0,0,0-7,10.55v71.46a11.39,11.39,0,0,0,7,10.53l78.37,32.89v61.28a29.85,29.85,0,0,0,29.77,29.78h90.33a29.84,29.84,0,0,0,29.73-28.13l136.71,57.43A22.55,22.55,0,0,0,382.13,404h0c18.31,0,32-21.16,42-64.69,8.44-36.85,13.08-85.6,13.08-137.31C437.24,176.15,436.08,151.06,433.86,127.81ZM205.47,349.38H115.14a7,7,0,0,1-6.94-6.95V290.74l104.22,43.79v7.9A7,7,0,0,1,205.47,349.38Zm15.47-224.63a11.46,11.46,0,0,0,10.67,7.4h0a11.17,11.17,0,0,0,4-.74l98.91-37.22C329.63,126.13,327,163.34,327,202c0,51.71,4.65,100.47,13.08,137.3A230.36,230.36,0,0,0,348,366.71L76.43,252.62V201.83a11.42,11.42,0,0,0-22.83,0v41.22L22.83,230.11V173.83L348,37.26a230.75,230.75,0,0,0-7.83,27.42c-.24,1.09-.49,2.19-.73,3.3L227.6,110.05a11.42,11.42,0,0,0-6.66,14.7ZM349.87,202c0-11.64.25-23.33.74-34.76a35.72,35.72,0,0,1,0,69.78C350.12,225.55,349.87,213.77,349.87,202Zm52,132.21h0c-9,39.36-18.52,46.21-19.74,46.92l-.35-.16c-1-.67-10.52-7.88-19.42-46.74-4.83-20.94-8.33-45.9-10.42-74.22a58.55,58.55,0,0,0,0-115.72c2-27.85,5.64-53.58,10.44-74.48,7.25-31.65,15.57-44.22,19.43-46.73l.34-.14c1.23.73,10.74,7.65,19.74,46.89,8,35.09,12.48,82,12.48,132.19S410,299.13,401.89,334.18Z"/><path d="M200.61,141.05a11.36,11.36,0,0,1-6.4,6l-.2.08-.46.17a11.71,11.71,0,0,1-3.75.63A11.45,11.45,0,0,1,179,140.24a11.42,11.42,0,0,1,7-14.54l.2-.07a11.42,11.42,0,0,1,14.68,6.65l0,.1A11.33,11.33,0,0,1,200.61,141.05Z"/></g></g></g></g></svg>