<svg xmlns="http://www.w3.org/2000/svg" viewBox="0 0 512 450"><g id="Layer_2" data-name="Layer 2"><g id="Capa_1" data-name="Capa 1"><path d="M467,180a43.52,43.52,0,0,0-5.63.37L408.43,76.15A45,45,0,1,0,333.58,30H178.42a45,45,0,1,0-74.85,46.15L50.63,180.37A43.52,43.52,0,0,0,45,180a45,45,0,1,0,5.63,89.64l52.94,104.21A45,45,0,1,0,178.42,420H333.58a45,45,0,1,0,74.85-46.15l52.94-104.21A45,45,0,1,0,467,180Zm-32.45,13.82-73.71-25.11c.1-1.23.16-2.46.16-3.71a44.89,44.89,0,0,0-15.53-34l30.19-41H376a45.38,45.38,0,0,0,5.63-.36Zm-132,14.12a44.92,44.92,0,0,0,45.87-11.77l72.8,24.8-157.7,39.21a.36.36,0,0,0-.07-.1ZM301,165a15,15,0,1,1,15,15A15,15,0,0,1,301,165ZM376,30a15,15,0,1,1-15,15A15,15,0,0,1,376,30ZM333.58,60a45,45,0,0,0,12.95,19L316.34,120H316a44.72,44.72,0,0,0-27,9L185.54,60ZM272.38,154a44.9,44.9,0,0,0,6.18,36l-39.1,52.13A44.68,44.68,0,0,0,226,240l-.85,0L166.37,83.28ZM241,285a15,15,0,1,1-15-15A15,15,0,0,1,241,285ZM136,30a15,15,0,1,1-15,15A15,15,0,0,1,136,30Zm-5.63,59.64A45.38,45.38,0,0,0,136,90l.85,0,60.22,160.59a45.58,45.58,0,0,0-6.57,6.82L90,224.15a44.85,44.85,0,0,0-12.55-30.3ZM45,240a15,15,0,1,1,15-15A15,15,0,0,1,45,240Zm91,180a15,15,0,1,1,15-15A15,15,0,0,1,136,420Zm13.46-57.94A44.68,44.68,0,0,0,136,360a45.38,45.38,0,0,0-5.63.36L77.43,256.15q1.62-1.69,3.07-3.54L181,285.85a44.67,44.67,0,0,0,7.54,24.07Zm29,27.94a44.53,44.53,0,0,0-5-9.92l39.1-52.14a44.9,44.9,0,0,0,37.2-4.74l83.5,66.8ZM376,420a15,15,0,1,1,15-15A15,15,0,0,1,376,420Zm5.63-59.64A45.38,45.38,0,0,0,376,360a44.63,44.63,0,0,0-23.74,6.8l-83.77-67a44.26,44.26,0,0,0,2.3-10.51l158.7-39.46a45.59,45.59,0,0,0,5.08,6.33ZM467,240a15,15,0,1,1,15-15A15,15,0,0,1,467,240Z"/></g></g></svg>