<svg xmlns="http://www.w3.org/2000/svg" viewBox="0 0 511.96 469.33"><g id="Layer_2" data-name="Layer 2"><g id="Layer_1-2" data-name="Layer 1"><g id="Layer_2-2" data-name="Layer 2"><g id="Capa_1" data-name="Capa 1"><path d="M117.33,128H352a10.67,10.67,0,1,0,.65-21.33c-.21,0-.43,0-.65,0H117.33a10.67,10.67,0,0,0,0,21.33Z"/><path d="M245.33,234.67h-128a10.67,10.67,0,0,0,0,21.33h128a10.67,10.67,0,1,0,.65-21.33Z"/><path d="M471.17,42.67c-.62,0-1.22.15-1.84.18v-.18A42.71,42.71,0,0,0,426.67,0h-384A42.73,42.73,0,0,0,0,42.67v416a10.67,10.67,0,0,0,18.21,7.54L121.75,362.67H426.67A42.71,42.71,0,0,0,469.33,320V143.08L500,112.37h0a40.82,40.82,0,0,0-28.87-69.69ZM448,320a21.34,21.34,0,0,1-21.33,21.33H117.33a10.67,10.67,0,0,0-7.54,3.13L21.33,432.92V42.67A21.37,21.37,0,0,1,42.67,21.33h384A21.36,21.36,0,0,1,448,42.67V50a42,42,0,0,0-5.71,4.67l-116.06,116H117.33a10.67,10.67,0,0,0,0,21.33H309.12l-10.24,51.24a10.65,10.65,0,0,0,12.54,12.55l53.31-10.66a10.65,10.65,0,0,0,5.46-2.92L448,164.41Zm-90.6-95.16-34.46,6.9,6.89-34.5,96.83-96.83L454.25,128ZM485,97.29l-15.63,15.63L441.74,85.33,457.37,69.7A19.52,19.52,0,1,1,485,97.29Z"/></g></g></g></g></svg>