<svg xmlns="http://www.w3.org/2000/svg" viewBox="0 0 403.69 512"><g id="Layer_2" data-name="Layer 2"><g id="Capa_1" data-name="Capa 1"><path d="M201.85,0C90.55,0,0,90.55,0,201.85a201.8,201.8,0,0,0,88.61,167V497.23a14.77,14.77,0,0,0,20.83,13.47l92.41-41.58,92.4,41.58a14.77,14.77,0,0,0,20.83-13.47V368.86a201.8,201.8,0,0,0,88.61-167C403.69,90.55,313.14,0,201.85,0Zm83.69,474.39-77.63-34.93a14.67,14.67,0,0,0-12.12,0l-77.64,34.93V385.55A200,200,0,0,0,141,394.3l1.32.42,3,.89c.74.21,1.47.43,2.21.63s1.61.45,2.42.66,1.88.5,2.82.73l2,.49c1.09.26,2.18.52,3.27.76l1.71.37c1.19.26,2.4.5,3.6.73l1.48.29c1.27.24,2.56.46,3.84.67l1.33.22c1.32.22,2.66.41,4,.6l1.25.17c1.35.18,2.71.34,4.07.49l1.21.14c1.36.15,2.72.27,4.09.38l1.24.11c1.34.11,2.69.2,4,.28l1.3.08c1.37.07,2.74.12,4.11.16l1.24.05c1.78.05,3.56.07,5.35.07s3.57,0,5.34-.07l1.24-.05c1.38,0,2.75-.09,4.12-.16l1.3-.08c1.35-.08,2.7-.17,4.05-.28l1.24-.11c1.36-.11,2.72-.24,4.08-.38l1.22-.14c1.36-.15,2.72-.31,4.07-.49l1.24-.17c1.34-.19,2.67-.38,4-.6l1.32-.22c1.29-.21,2.57-.43,3.85-.67l1.47-.29c1.21-.23,2.41-.47,3.61-.73l1.7-.37c1.1-.24,2.19-.5,3.27-.76l2-.49c1-.23,1.89-.48,2.83-.73s1.61-.43,2.41-.66l2.22-.63,3-.89,1.32-.42a200.92,200.92,0,0,0,22.8-8.74v88.83ZM258.08,364.72l-1.77.61-2.71.88c-1,.33-2.11.65-3.17,1l-2.24.65c-1.4.39-2.81.76-4.22,1.12l-1.58.38c-1.38.34-2.77.66-4.16,1l-1,.22q-2.69.57-5.4,1l-.55.1c-1.63.28-3.26.53-4.9.77l-1.11.15c-1.74.24-3.49.46-5.24.64l-.2,0c-1.84.2-3.68.35-5.53.48l-1.2.08c-1.43.09-2.87.17-4.31.22l-1.47.06c-1.8.06-3.61.09-5.42.09s-3.62,0-5.43-.09L195,374c-1.44-.05-2.87-.13-4.31-.22l-1.2-.08q-2.77-.19-5.52-.48l-.2,0c-1.76-.18-3.5-.4-5.25-.64l-1.11-.16c-1.63-.23-3.27-.48-4.9-.76l-.55-.1q-2.72-.46-5.4-1l-1-.23c-1.39-.3-2.77-.61-4.16-.95l-1.58-.39c-1.41-.35-2.81-.73-4.21-1.12l-2.25-.64c-1.06-.32-2.12-.63-3.17-1l-2.7-.88-1.77-.61C78.13,341.36,29.54,277.17,29.54,201.85c0-95,77.3-172.31,172.31-172.31s172.3,77.29,172.3,172.31C374.15,277.17,325.56,341.36,258.08,364.72Z"/><path d="M289.47,201.85l27.74-52.14A14.77,14.77,0,0,0,304.68,128l-59-2L214.37,75.87a14.76,14.76,0,0,0-25.05,0L158,126l-59,2a14.77,14.77,0,0,0-12.53,21.7l27.74,52.14L86.48,254A14.76,14.76,0,0,0,99,275.68l59,2.05,31.28,50.09a14.76,14.76,0,0,0,25.05,0l31.29-50.09,59-2.05A14.76,14.76,0,0,0,317.21,254Zm-52.69,46.63a14.75,14.75,0,0,0-12,6.94l-22.92,36.7-22.92-36.7a14.78,14.78,0,0,0-12-6.94L123.67,247,144,208.78a14.75,14.75,0,0,0,0-13.87l-20.32-38.2,43.24-1.5a14.77,14.77,0,0,0,12-6.94l22.92-36.7,22.92,36.7a14.75,14.75,0,0,0,12,6.94l43.24,1.5-20.32,38.2a14.75,14.75,0,0,0,0,13.87L280,247Z"/></g></g></svg>