<svg xmlns="http://www.w3.org/2000/svg" viewBox="0 0 512 198.51"><g id="Layer_2" data-name="Layer 2"><g id="Capa_1" data-name="Capa 1"><path d="M458.38,132.29l-16.95-17a47.25,47.25,0,1,0-17.78,17.75l17,17a12.56,12.56,0,0,0,17.76-17.77ZM400.32,69.88a22.12,22.12,0,1,1,0,44.23,22.3,22.3,0,0,1-8.48-1.67,22.12,22.12,0,0,1,8.48-42.56Z"/><path d="M319.43,141.17a12.58,12.58,0,0,1-12.56,12.56H62.5a12.56,12.56,0,0,1,0-25.12H306.87A12.58,12.58,0,0,1,319.43,141.17Z"/><path d="M459.94,198.51H52.06A52.12,52.12,0,0,1,0,146.45V52.06A52.11,52.11,0,0,1,52.06,0H459.94A52.11,52.11,0,0,1,512,52.06v94.39A52.12,52.12,0,0,1,459.94,198.51ZM52.06,24a28.06,28.06,0,0,0-28,28v94.39a28.06,28.06,0,0,0,28,28H459.94a28.06,28.06,0,0,0,28-28V52.06a28.06,28.06,0,0,0-28-28Z"/></g></g></svg>