<svg xmlns="http://www.w3.org/2000/svg" viewBox="0 0 510 512"><g id="Layer_2" data-name="Layer 2"><g id="Capa_1" data-name="Capa 1"><path d="M503.32,162.52,420,107V85a15,15,0,0,0-15-15H364.54L263.32,2.52a15,15,0,0,0-16.64,0L145.46,70H105A15,15,0,0,0,90,85v22L6.68,162.52A15,15,0,0,0,0,175V435a15,15,0,0,0,15,15H206.83l35.57,55.13a15,15,0,0,0,25.2,0L303.17,450H495a15,15,0,0,0,15-15V175A15,15,0,0,0,503.32,162.52ZM286.49,305,480,200.18V409.82ZM466,173.67l-46,24.9V143ZM255,33l55.46,37H199.54Zm135,67V214.82L255,287.94,120,214.82V100ZM90,198.57l-46-24.9L90,143ZM295,420a15,15,0,0,0-12.6,6.87L255,469.33l-27.4-42.46A15,15,0,0,0,215,420H30V200.18L435.81,420Z"/></g></g></svg>